HIERARCHY
ROOT pelvis
{
	OFFSET 0.000000 0.000000 0.000000
	CHANNELS 6 Xposition Yposition Zposition Zrotation Xrotation Yrotation
	JOINT lfemur
	{
		OFFSET 11.446000 0.000000 0.000000
		CHANNELS 3 Zrotation Xrotation Yrotation
		JOINT ltibia
		{
			OFFSET 0.000000 -42.030400 0.000000
			CHANNELS 3 Zrotation Xrotation Yrotation
			JOINT lfoot
			{
				OFFSET 0.000000 -39.930200 0.000000
				CHANNELS 3 Zrotation Xrotation Yrotation
				JOINT ltoes
				{
					OFFSET 0.000000 0.000000 11.775800
					CHANNELS 3 Zrotation Xrotation Yrotation
					End Site
					{
					    OFFSET 0.000000 0.000000 5.000000
					}
				}
			}
		}
	}
	JOINT rfemur
	{
		OFFSET -11.446000 0.000000 0.000000
		CHANNELS 3 Zrotation Xrotation Yrotation
		JOINT rtibia
		{
			OFFSET 0.000000 -42.030400 0.000000
			CHANNELS 3 Zrotation Xrotation Yrotation
			JOINT rfoot
			{
				OFFSET 0.000000 -39.930200 0.000000
				CHANNELS 3 Zrotation Xrotation Yrotation
				JOINT rtoes
				{
					OFFSET 0.000000 0.000000 11.775800
					CHANNELS 3 Zrotation Xrotation Yrotation
					End Site
					{
					    OFFSET 0.000000 0.000000 5.000000
					}
				}
			}
		}
	}
	JOINT thorax
	{
		OFFSET 0.000000 11.255600 -5.000000
		CHANNELS 3 Zrotation Xrotation Yrotation
		JOINT head
		{
			OFFSET 0.000000 43.799300 0.000000
			CHANNELS 3 Zrotation Xrotation Yrotation
			End Site
			{
			    OFFSET 0.000000 5.000000 0.000000
			}
		}
		JOINT lclavicle
		{
			OFFSET 0.000000 39.863000 0.000000
			CHANNELS 3 Zrotation Xrotation Yrotation
			JOINT lhumerus
			{
				OFFSET 17.380600 4.958300 0.000000
				CHANNELS 3 Zrotation Xrotation Yrotation
				JOINT lradius
				{
					OFFSET 0.000000 -27.561300 0.000000
					CHANNELS 3 Zrotation Xrotation Yrotation
					JOINT lhand
					{
						OFFSET 0.000000 -26.933000 0.000000
						CHANNELS 3 Zrotation Xrotation Yrotation
						End Site
						{
						    OFFSET 0.000000 -5.000000 0.000000
						}
					}
				}
			}
		}
		JOINT rclavicle
		{
			OFFSET 0.000000 39.863000 0.000000
			CHANNELS 3 Zrotation Xrotation Yrotation
			JOINT rhumerus
			{
				OFFSET -17.380600 4.958300 0.000000
				CHANNELS 3 Zrotation Xrotation Yrotation
				JOINT rradius
				{
					OFFSET 0.000000 -27.561300 0.000000
					CHANNELS 3 Zrotation Xrotation Yrotation
					JOINT rhand
					{
						OFFSET 0.000000 -26.933000 0.000000
						CHANNELS 3 Zrotation Xrotation Yrotation
						End Site
						{
						    OFFSET 0.000000 -5.000000 0.000000
						}
					}
				}
			}
		}
	}
}
MOTION
Frames:	7
Frame Time:	0.0333333
-198.12 88.6678 -47.3993 -2.99606 -0.865316 -90.7876 -0.959495 -0.385551 1.2855 1.96982 13.2578 10.365 3.15295 1.87904 0.038454 -3.18055e-015 -5 -0 0.769423 -1.99954 -1.38763 -0.778694 13.7312 -9.28886 -1.30845 4.38637 -0.116888 8.34878e-016 -5 1.59635e-015 -2.38412 1.32993 -0.707692 -3.48018 27.1291 -1.13923 2.8018e-033 -4.03781e-016 3.97569e-016 12.5455 -12.1107 63.4105 2.32575 -0.0868664 -106.708 7.39952 -8.69997 -9.02506 2.8018e-033 -4.03781e-016 3.97569e-016 -12.9561 -3.23511 -30.2549 13.2354 -3.23527 60.1924 -0.224225 -1.3326 9.91939 
-198.146 88.6622 -47.5201 -2.9024 -0.862051 -90.5751 -0.865804 -0.54151 1.27089 2.02792 13.3639 10.1133 3.07813 1.83397 0.0386273 1.86854e-015 -5 3.1927e-015 0.866429 -2.00886 -1.33643 -0.741727 13.6471 -9.54543 -1.29365 4.38776 -0.117077 -3.37916e-016 -5 -1.59635e-015 -2.09729 1.36509 -0.680887 -4.09102 27.2691 -0.0668909 3.97569e-016 1.78906e-015 -3.97569e-016 12.41 -12.1132 63.6718 2.51237 -0.00315057 -107.105 7.7104 -8.93014 -8.97485 3.97569e-016 1.78906e-015 -3.97569e-016 -13.4249 -3.41211 -30.5113 13.2676 -2.76337 60.8752 -0.405337 -1.3095 9.90898 
-198.121 88.6528 -47.6411 -2.71845 -0.900493 -90.272 -0.824922 -0.860451 1.19365 2.08851 13.5125 9.85023 3.04994 1.85796 0.0388077 4.6317e-015 -5 -1.59635e-015 0.894566 -2.2068 -1.34331 -0.660547 13.7284 -9.87277 -1.36657 4.29534 -0.117283 -0 -5 -0 -1.86227 1.38938 -0.687765 -4.72846 27.2192 0.937944 1.98785e-016 1.98474e-015 1.98785e-016 12.3675 -12.0555 63.8326 2.52338 -0.00308454 -107.4 7.92713 -9.03345 -8.94095 1.98785e-016 1.98474e-015 1.98785e-016 -13.6733 -3.40607 -30.7089 13.2029 -2.48033 61.2596 -0.603882 -1.40469 9.89731 
-198.061 88.6344 -47.7691 -2.52788 -0.971622 -89.9478 -0.795834 -1.23457 1.12441 2.1085 13.7145 9.59438 3.01689 1.8656 0.0391633 -9.3427e-016 -5 -1.59635e-015 0.896049 -2.50108 -1.36906 -0.582395 13.9546 -10.2016 -1.48981 4.11865 -0.117511 -1.41132e-015 -5 -4.78906e-015 -1.66652 1.54329 -0.672855 -5.33539 26.9347 1.8353 -0 -1.50331e-015 -0 12.3226 -11.9291 63.8099 2.37084 -0.0425667 -107.421 7.73128 -8.82788 -8.97744 -0 -1.50331e-015 -0 -13.5169 -3.12856 -30.4593 13.0433 -3.01682 60.3573 -0.36547 -1.5259 9.91091 
-197.986 88.6114 -47.9049 -2.36748 -1.03941 -89.5211 -0.728195 -1.67291 1.07322 2.1215 14.0579 9.19166 2.93604 1.78185 0.0398624 1.31201e-015 -5 -3.1927e-015 0.92331 -2.75183 -1.38669 -0.506366 14.1522 -10.6256 -1.59509 3.94908 -0.118673 1.19217e-016 -5 4.78906e-015 -1.45653 1.85502 -0.666758 -5.67803 26.6522 2.55414 4.96962e-017 3.30305e-015 2.48481e-017 12.2684 -11.8422 63.7873 2.25504 -0.11992 -107.39 7.32391 -8.54737 -9.04269 4.96962e-017 3.30305e-015 2.48481e-017 -13.2661 -2.86197 -30.286 12.844 -3.65896 59.6435 -0.126884 -1.785 9.92432 
-197.883 88.5801 -48.0477 -2.18059 -1.08224 -88.8545 -0.641086 -2.30307 0.957498 2.17516 14.6275 8.5806 2.76594 1.63226 0.0437024 3.18055e-015 -5 -0 0.942462 -2.99356 -1.45392 -0.362565 14.2915 -11.2393 -1.6533 3.7959 -0.120941 -2.44507e-015 -5 1.59635e-015 -1.21879 2.19815 -0.714141 -5.77948 26.5471 3.3364 7.45742e-033 -4.29891e-015 9.93923e-017 12.3706 -11.8749 63.8766 2.22972 -0.0517636 -107.457 7.22227 -8.44883 -9.06378 7.45742e-033 -4.29891e-015 9.93923e-017 -13.2918 -2.87244 -30.5051 12.7553 -3.57452 60.3759 -0.457313 -2.1576 9.90336 
-197.717 88.5191 -48.1862 -1.90242 -1.10043 -87.9747 -0.556014 -3.25417 0.682181 2.2195 15.5384 7.94481 2.50723 1.34672 0.0498608 -2.24628e-015 -5 1.59635e-015 0.897951 -3.39691 -1.63614 -0.0959623 14.5496 -11.9695 -1.69058 3.55477 -0.123217 1.19307e-016 -5 -3.1927e-015 -0.903927 2.54856 -0.789184 -6.0578 26.4898 4.64125 -1.2424e-017 4.00287e-016 -3.97569e-016 12.4705 -11.9307 63.9265 2.19902 -0.00306541 -107.475 7.3614 -8.5148 -9.04473 -1.2424e-017 4.00287e-016 -3.97569e-016 -13.5594 -3.12712 -30.5891 12.8353 -3.24342 61.2679 -0.847029 -2.24005 9.87783 
